<svg xmlns="http://www.w3.org/2000/svg" viewBox="0 0 800 600" role="img" aria-labelledby="t d">
<title id="t">Birthday balloons</title>
<desc id="d">Rose, gold and plum balloons drift above the words Happy Birthday.</desc>
<rect width="800" height="600" fill="#362645"/>
<circle cx="305" cy="60" r="0.9" fill="#EFE6D3" opacity="0.71"/><circle cx="462" cy="179" r="1.2" fill="#EFE6D3" opacity="0.44"/><circle cx="585" cy="150" r="1.4" fill="#EFE6D3" opacity="0.58"/><circle cx="671" cy="114" r="0.9" fill="#EFE6D3" opacity="0.32"/><circle cx="579" cy="44" r="1.3" fill="#EFE6D3" opacity="0.56"/><circle cx="48" cy="204" r="0.8" fill="#EFE6D3" opacity="0.68"/><circle cx="673" cy="56" r="1.4" fill="#EFE6D3" opacity="0.62"/><circle cx="100" cy="174" r="0.9" fill="#EFE6D3" opacity="0.71"/><circle cx="551" cy="255" r="0.8" fill="#EFE6D3" opacity="0.41"/><circle cx="496" cy="158" r="0.9" fill="#EFE6D3" opacity="0.69"/><circle cx="677" cy="78" r="0.9" fill="#EFE6D3" opacity="0.58"/><circle cx="326" cy="172" r="1.2" fill="#EFE6D3" opacity="0.45"/><circle cx="17" cy="35" r="1.2" fill="#EFE6D3" opacity="0.61"/><circle cx="341" cy="194" r="1.2" fill="#EFE6D3" opacity="0.69"/><circle cx="524" cy="84" r="0.9" fill="#EFE6D3" opacity="0.28"/><circle cx="32" cy="224" r="1.5" fill="#EFE6D3" opacity="0.63"/><circle cx="87" cy="172" r="0.9" fill="#EFE6D3" opacity="0.69"/><circle cx="524" cy="195" r="1.3" fill="#EFE6D3" opacity="0.46"/><circle cx="679" cy="250" r="1.0" fill="#EFE6D3" opacity="0.47"/><circle cx="587" cy="177" r="1.1" fill="#EFE6D3" opacity="0.48"/><circle cx="774" cy="72" r="1.0" fill="#EFE6D3" opacity="0.59"/><circle cx="222" cy="233" r="1.1" fill="#EFE6D3" opacity="0.71"/><path d="M94,177 q-8,16 0,60" fill="none" stroke="#EFE6D3" stroke-width="1.6" opacity="0.8"/><ellipse cx="94" cy="125" rx="30" ry="38" fill="#D8A29B"/><path d="M86,111 q8,-8 12,2" fill="none" stroke="#F7F2E9" stroke-width="4" opacity="0.55"/><path d="M89,163 L99,163 L94,173 Z" fill="#D8A29B"/><path d="M163,212 q-8,16 0,60" fill="none" stroke="#EFE6D3" stroke-width="1.6" opacity="0.8"/><ellipse cx="163" cy="160" rx="30" ry="38" fill="#C9A24B"/><path d="M155,146 q8,-8 12,2" fill="none" stroke="#F7F2E9" stroke-width="4" opacity="0.55"/><path d="M158,198 L168,198 L163,208 Z" fill="#C9A24B"/><path d="M258,294 q-8,16 0,60" fill="none" stroke="#EFE6D3" stroke-width="1.6" opacity="0.8"/><ellipse cx="258" cy="242" rx="30" ry="38" fill="#F7F2E9"/><path d="M250,228 q8,-8 12,2" fill="none" stroke="#F7F2E9" stroke-width="4" opacity="0.55"/><path d="M253,280 L263,280 L258,290 Z" fill="#F7F2E9"/><path d="M343,188 q-8,16 0,60" fill="none" stroke="#EFE6D3" stroke-width="1.6" opacity="0.8"/><ellipse cx="343" cy="136" rx="30" ry="38" fill="#4A3564"/><path d="M335,122 q8,-8 12,2" fill="none" stroke="#F7F2E9" stroke-width="4" opacity="0.55"/><path d="M338,174 L348,174 L343,184 Z" fill="#4A3564"/><path d="M408,177 q-8,16 0,60" fill="none" stroke="#EFE6D3" stroke-width="1.6" opacity="0.8"/><ellipse cx="408" cy="125" rx="30" ry="38" fill="#D8A29B"/><path d="M400,111 q8,-8 12,2" fill="none" stroke="#F7F2E9" stroke-width="4" opacity="0.55"/><path d="M403,163 L413,163 L408,173 Z" fill="#D8A29B"/><path d="M481,263 q-8,16 0,60" fill="none" stroke="#EFE6D3" stroke-width="1.6" opacity="0.8"/><ellipse cx="481" cy="211" rx="30" ry="38" fill="#C9A24B"/><path d="M473,197 q8,-8 12,2" fill="none" stroke="#F7F2E9" stroke-width="4" opacity="0.55"/><path d="M476,249 L486,249 L481,259 Z" fill="#C9A24B"/><path d="M555,208 q-8,16 0,60" fill="none" stroke="#EFE6D3" stroke-width="1.6" opacity="0.8"/><ellipse cx="555" cy="156" rx="30" ry="38" fill="#F7F2E9"/><path d="M547,142 q8,-8 12,2" fill="none" stroke="#F7F2E9" stroke-width="4" opacity="0.55"/><path d="M550,194 L560,194 L555,204 Z" fill="#F7F2E9"/><path d="M655,270 q-8,16 0,60" fill="none" stroke="#EFE6D3" stroke-width="1.6" opacity="0.8"/><ellipse cx="655" cy="218" rx="30" ry="38" fill="#4A3564"/><path d="M647,204 q8,-8 12,2" fill="none" stroke="#F7F2E9" stroke-width="4" opacity="0.55"/><path d="M650,256 L660,256 L655,266 Z" fill="#4A3564"/><path d="M721,278 q-8,16 0,60" fill="none" stroke="#EFE6D3" stroke-width="1.6" opacity="0.8"/><ellipse cx="721" cy="226" rx="30" ry="38" fill="#D8A29B"/><path d="M713,212 q8,-8 12,2" fill="none" stroke="#F7F2E9" stroke-width="4" opacity="0.55"/><path d="M716,264 L726,264 L721,274 Z" fill="#D8A29B"/><rect y="540" width="800" height="60" fill="#241B2F"/><text x="400" y="520" text-anchor="middle" font-family="Palatino, Georgia, serif" font-style="italic" font-size="34" fill="#C9A24B">Happy Birthday</text><rect x="14" y="14" width="772" height="572" fill="none" stroke="#8F6E22" stroke-width="2" opacity="0.55"/></svg>