<svg xmlns="http://www.w3.org/2000/svg" viewBox="0 0 800 600" role="img" aria-labelledby="t d">
<title id="t">Floral ceremony arch</title>
<desc id="d">A gold ceremony arch dressed with rose blooms above an ivory aisle at dusk.</desc>
<rect width="800" height="600" fill="#362645"/>
<circle cx="132" cy="179" r="1.3" fill="#EFE6D3" opacity="0.49"/><circle cx="173" cy="206" r="1.4" fill="#EFE6D3" opacity="0.51"/><circle cx="404" cy="61" r="0.8" fill="#EFE6D3" opacity="0.44"/><circle cx="468" cy="18" r="1.4" fill="#EFE6D3" opacity="0.37"/><circle cx="186" cy="11" r="1.6" fill="#EFE6D3" opacity="0.62"/><circle cx="700" cy="160" r="0.8" fill="#EFE6D3" opacity="0.41"/><circle cx="398" cy="30" r="1.6" fill="#EFE6D3" opacity="0.43"/><circle cx="124" cy="213" r="0.9" fill="#EFE6D3" opacity="0.71"/><circle cx="363" cy="144" r="1.1" fill="#EFE6D3" opacity="0.49"/><circle cx="150" cy="10" r="1.5" fill="#EFE6D3" opacity="0.37"/><circle cx="624" cy="54" r="1.6" fill="#EFE6D3" opacity="0.70"/><circle cx="604" cy="198" r="1.3" fill="#EFE6D3" opacity="0.61"/><circle cx="98" cy="124" r="1.5" fill="#EFE6D3" opacity="0.35"/><circle cx="739" cy="231" r="1.1" fill="#EFE6D3" opacity="0.43"/><circle cx="361" cy="100" r="1.6" fill="#EFE6D3" opacity="0.44"/><circle cx="21" cy="24" r="1.4" fill="#EFE6D3" opacity="0.75"/><circle cx="397" cy="128" r="1.2" fill="#EFE6D3" opacity="0.62"/><circle cx="178" cy="158" r="1.2" fill="#EFE6D3" opacity="0.56"/><circle cx="145" cy="44" r="1.1" fill="#EFE6D3" opacity="0.71"/><circle cx="277" cy="155" r="1.0" fill="#EFE6D3" opacity="0.30"/><circle cx="53" cy="212" r="1.4" fill="#EFE6D3" opacity="0.44"/><circle cx="547" cy="176" r="1.5" fill="#EFE6D3" opacity="0.73"/><circle cx="326" cy="257" r="1.6" fill="#EFE6D3" opacity="0.55"/><circle cx="707" cy="128" r="1.1" fill="#EFE6D3" opacity="0.37"/><circle cx="701" cy="42" r="0.9" fill="#EFE6D3" opacity="0.65"/><circle cx="619" cy="126" r="1.5" fill="#EFE6D3" opacity="0.28"/><circle cx="206" cy="75" r="1.1" fill="#EFE6D3" opacity="0.34"/><circle cx="56" cy="88" r="1.5" fill="#EFE6D3" opacity="0.74"/><circle cx="597" cy="125" r="1.0" fill="#EFE6D3" opacity="0.73"/><circle cx="421" cy="189" r="0.8" fill="#EFE6D3" opacity="0.36"/><path d="M200,540 L200,270 A200,200 0 0 1 600,270 L600,540" fill="none" stroke="#C9A24B" stroke-width="9"/><circle cx="200" cy="320" r="20" fill="#D8A29B"/><circle cx="200" cy="320" r="9" fill="#B97F78"/><circle cx="200" cy="280" r="15" fill="#D8A29B"/><circle cx="200" cy="280" r="7" fill="#B97F78"/><circle cx="600" cy="320" r="20" fill="#D8A29B"/><circle cx="600" cy="320" r="9" fill="#B97F78"/><circle cx="600" cy="280" r="15" fill="#D8A29B"/><circle cx="600" cy="280" r="7" fill="#B97F78"/><circle cx="246" cy="238" r="17" fill="#D8A29B"/><circle cx="246" cy="238" r="8" fill="#B97F78"/><circle cx="554" cy="238" r="17" fill="#D8A29B"/><circle cx="554" cy="238" r="8" fill="#B97F78"/><circle cx="300" cy="214" r="13" fill="#D8A29B"/><circle cx="300" cy="214" r="6" fill="#B97F78"/><circle cx="500" cy="214" r="13" fill="#D8A29B"/><circle cx="500" cy="214" r="6" fill="#B97F78"/><circle cx="400" cy="206" r="15" fill="#D8A29B"/><circle cx="400" cy="206" r="7" fill="#B97F78"/><path d="M320,540 L340,420 L460,420 L480,540 Z" fill="#F7F2E9" opacity="0.9"/><rect y="536" width="800" height="6" fill="#8F6E22" opacity="0.5"/><rect x="14" y="14" width="772" height="572" fill="none" stroke="#8F6E22" stroke-width="2" opacity="0.55"/></svg>