<svg xmlns="http://www.w3.org/2000/svg" viewBox="0 0 800 600" role="img" aria-labelledby="t d">
<title id="t">Three-tier wedding cake</title>
<desc id="d">An ivory three-tier cake piped with gold, crowned with roses and a single candle.</desc>
<rect width="800" height="600" fill="#362645"/>
<circle cx="740" cy="247" r="1.5" fill="#EFE6D3" opacity="0.29"/><circle cx="474" cy="110" r="1.2" fill="#EFE6D3" opacity="0.32"/><circle cx="154" cy="116" r="1.0" fill="#EFE6D3" opacity="0.48"/><circle cx="20" cy="22" r="1.4" fill="#EFE6D3" opacity="0.46"/><circle cx="410" cy="191" r="1.1" fill="#EFE6D3" opacity="0.28"/><circle cx="626" cy="153" r="1.3" fill="#EFE6D3" opacity="0.56"/><circle cx="777" cy="94" r="1.4" fill="#EFE6D3" opacity="0.43"/><circle cx="458" cy="172" r="1.1" fill="#EFE6D3" opacity="0.29"/><circle cx="379" cy="187" r="1.3" fill="#EFE6D3" opacity="0.47"/><circle cx="514" cy="47" r="0.9" fill="#EFE6D3" opacity="0.41"/><circle cx="653" cy="51" r="0.9" fill="#EFE6D3" opacity="0.30"/><circle cx="31" cy="72" r="1.3" fill="#EFE6D3" opacity="0.66"/><circle cx="265" cy="96" r="1.0" fill="#EFE6D3" opacity="0.40"/><circle cx="622" cy="143" r="1.0" fill="#EFE6D3" opacity="0.30"/><circle cx="627" cy="184" r="1.5" fill="#EFE6D3" opacity="0.37"/><circle cx="436" cy="239" r="1.3" fill="#EFE6D3" opacity="0.72"/><circle cx="134" cy="254" r="0.8" fill="#EFE6D3" opacity="0.46"/><circle cx="19" cy="210" r="1.3" fill="#EFE6D3" opacity="0.74"/><circle cx="644" cy="247" r="1.2" fill="#EFE6D3" opacity="0.74"/><circle cx="599" cy="90" r="1.6" fill="#EFE6D3" opacity="0.44"/><circle cx="155" cy="20" r="1.2" fill="#EFE6D3" opacity="0.35"/><circle cx="747" cy="247" r="1.0" fill="#EFE6D3" opacity="0.30"/><circle cx="423" cy="44" r="1.2" fill="#EFE6D3" opacity="0.66"/><circle cx="202" cy="110" r="1.5" fill="#EFE6D3" opacity="0.47"/><ellipse cx="400" cy="524" rx="200" ry="26" fill="#4A3564"/><rect x="280" y="396" width="240" height="74" rx="6" fill="#F7F2E9"/><rect x="280" y="458" width="240" height="12" fill="#EFE6D3"/><path d="M280,412 q20,12 40,0 t40,0 t40,0 t40,0 t40,0 t40,0" fill="none" stroke="#C9A24B" stroke-width="3" opacity="0.85"/><rect x="305" y="330" width="190" height="66" rx="6" fill="#F7F2E9"/><rect x="305" y="384" width="190" height="12" fill="#EFE6D3"/><path d="M305,346 q20,12 40,0 t40,0 t40,0 t40,0 t40,0 t40,0" fill="none" stroke="#C9A24B" stroke-width="3" opacity="0.85"/><rect x="330" y="270" width="140" height="60" rx="6" fill="#F7F2E9"/><rect x="330" y="318" width="140" height="12" fill="#EFE6D3"/><path d="M330,286 q20,12 40,0 t40,0 t40,0 t40,0 t40,0 t40,0" fill="none" stroke="#C9A24B" stroke-width="3" opacity="0.85"/><circle cx="340" cy="244" r="15" fill="#D8A29B"/><circle cx="340" cy="244" r="6" fill="#B97F78"/><circle cx="400" cy="232" r="15" fill="#D8A29B"/><circle cx="400" cy="232" r="6" fill="#B97F78"/><circle cx="460" cy="244" r="15" fill="#D8A29B"/><circle cx="460" cy="244" r="6" fill="#B97F78"/><line x1="400" y1="188" x2="400" y2="216" stroke="#C9A24B" stroke-width="3"/><ellipse cx="400" cy="182" rx="6" ry="10" fill="#C9A24B"/><ellipse cx="400" cy="182" rx="14" ry="20" fill="#C9A24B" opacity="0.2"/><rect x="14" y="14" width="772" height="572" fill="none" stroke="#8F6E22" stroke-width="2" opacity="0.55"/></svg>