<svg xmlns="http://www.w3.org/2000/svg" viewBox="0 0 400 400" role="img" aria-labelledby="t d">
<title id="t">Daniel Whitmore, Corporate Events Lead</title>
<desc id="d">Illustrated portrait: Daniel Whitmore, Corporate Events Lead.</desc>
<rect width="400" height="400" fill="#362645"/>
<circle cx="200" cy="200" r="176" fill="#4A3564"/><circle cx="200" cy="200" r="176" fill="none" stroke="#C9A24B" stroke-width="4"/><path d="M96,400 q10,-96 104,-96 q94,0 104,96 Z" fill="#241B2F"/><path d="M168,300 q32,18 64,0 l0,-40 l-64,0 Z" fill="#E8C39A"/><ellipse cx="200" cy="212" rx="62" ry="74" fill="#E8C39A"/><path d="M138,204 q-4,-78 62,-82 q66,4 62,82 q-10,-44 -62,-44 q-52,0 -62,44 Z" fill="#5A4632"/><circle cx="176" cy="212" r="5" fill="#241B2F"/><circle cx="224" cy="212" r="5" fill="#241B2F"/><path d="M186,248 q14,10 28,0" fill="none" stroke="#241B2F" stroke-width="4" stroke-linecap="round"/><path d="M150,332 h100" stroke="#C9A24B" stroke-width="4"/></svg>